<?xml version="1.0" standalone="no"?>
<!DOCTYPE svg PUBLIC "-//W3C//DTD SVG 20010904//EN"
 "http://www.w3.org/TR/2001/REC-SVG-20010904/DTD/svg10.dtd">
<svg version="1.0" xmlns="http://www.w3.org/2000/svg"
 width="250.000000pt" height="250.000000pt" viewBox="0 0 250.000000 250.000000"
 preserveAspectRatio="xMidYMid meet">
<metadata>
Created by potrace 1.10, written by Peter Selinger 2001-2011
</metadata>
<g transform="translate(0.000000,249.000000) scale(0.100000,-0.100000)"
fill="#000000" stroke="none">
<path d="M969 2063 l-386 -3 -12 -24 c-20 -37 -10 -60 32 -73 50 -17 829 -21
870 -4 35 14 43 34 27 70 -13 31 -45 43 -109 39 -20 -2 -210 -4 -422 -5z"/>
<path d="M1414 1209 c-10 -4 -197 -8 -414 -8 -217 0 -403 -1 -412 -1 -22 0
-41 -35 -33 -59 5 -16 23 -19 163 -24 802 -32 796 -32 814 8 8 19 7 29 -4 47
-17 26 -85 48 -114 37z"/>
<path d="M521 358 c-26 -20 -27 -60 -2 -82 16 -15 64 -17 519 -17 463 0 503 2
522 18 34 30 19 68 -35 87 -11 4 -237 8 -502 9 -436 2 -484 0 -502 -15z"/>
</g>
</svg>
