<?xml version="1.0" encoding="UTF-8" standalone="no"?>
<!-- Created with Inkscape (http://www.inkscape.org/) -->

<svg
   xmlns:dc="http://purl.org/dc/elements/1.1/"
   xmlns:cc="http://creativecommons.org/ns#"
   xmlns:rdf="http://www.w3.org/1999/02/22-rdf-syntax-ns#"
   xmlns:svg="http://www.w3.org/2000/svg"
   xmlns="http://www.w3.org/2000/svg"
   xmlns:sodipodi="http://sodipodi.sourceforge.net/DTD/sodipodi-0.dtd"
   xmlns:inkscape="http://www.inkscape.org/namespaces/inkscape"
   width="300"
   height="300"
   id="svg2"
   version="1.1"
   inkscape:version="0.48.2 r9819"
   sodipodi:docname="Nouveau document 1">
  <defs
     id="defs4" />
  <sodipodi:namedview
     id="base"
     pagecolor="#ffffff"
     bordercolor="#666666"
     borderopacity="1.0"
     inkscape:pageopacity="0.0"
     inkscape:pageshadow="2"
     inkscape:zoom="1.979899"
     inkscape:cx="251.44162"
     inkscape:cy="152.32382"
     inkscape:document-units="px"
     inkscape:current-layer="layer1"
     showgrid="false"
     inkscape:window-width="1280"
     inkscape:window-height="999"
     inkscape:window-x="0"
     inkscape:window-y="24"
     inkscape:window-maximized="1" />
  <metadata
     id="metadata7">
    <rdf:RDF>
      <cc:Work
         rdf:about="">
        <dc:format>image/svg+xml</dc:format>
        <dc:type
           rdf:resource="http://purl.org/dc/dcmitype/StillImage" />
        <dc:title></dc:title>
      </cc:Work>
    </rdf:RDF>
  </metadata>
  <g
     inkscape:label="Calque 1"
     inkscape:groupmode="layer"
     id="layer1"
     transform="translate(0,-752.36218)">
    <path
       style="fill:#000000"
       d="M 98.002106,1011.7368 C 79.525831,1006.8494 58.253343,994.18003 52.714397,984.76454 41.59346,965.8604 38.945811,949.5444 38.671642,898.22682 c -0.217696,-40.74747 1.114235,-57.43147 5.454447,-68.32332 6.482128,-16.26704 15.407758,-29.06746 22.272623,-31.9416 2.544614,-1.06536 34.347228,-1.67228 70.672488,-1.34869 103.23329,0.91959 119.0739,6.1462 124.74771,41.16051 2.83531,17.49728 2.69288,24.91589 -1.76986,92.18519 -3.90071,58.79762 -14.54407,75.41899 -53.1642,83.02459 -28.64211,5.6406 -85.29869,4.9919 -108.882744,-1.2467 z M 204.53597,997.44984 c 11.67015,-2.15944 15.54578,-5.24987 27.68682,-22.07742 6.19956,-8.59263 2.5853,-13.5616 -17.78861,-24.45619 -35.90574,-19.19998 -45.71978,-40.31839 -46.53651,-100.13993 -0.29322,-21.47776 -1.45307,-40.0588 -2.57742,-41.29121 -1.12436,-1.23241 -7.68049,-2.24074 -14.56918,-2.24074 l -12.5249,0 -1.95604,46.6571 c -1.07582,25.6614 -3.95206,51.07319 -6.39163,56.47065 -4.57039,10.11177 -24.94242,25.22896 -52.234553,38.76096 -8.507745,4.21831 -15.43963,9.39533 -15.404188,11.50448 0.03544,2.10916 4.640367,10.1623 10.233168,17.89588 14.761558,20.41188 25.339676,23.42048 78.039803,22.19598 22.83216,-0.5306 47.14262,-2.00637 54.02324,-3.27956 z m 34.58325,-77.07414 c 0.77419,-23.28764 0.67365,-65.83512 -0.15557,-65.83512 -0.31694,0 -1.29459,-6.86602 -2.17258,-15.25782 -2.01721,-19.28069 -11.16352,-26.92531 -32.21448,-26.92531 -12.37104,0 -14.47913,0.82343 -14.72654,5.75225 -0.15881,3.16373 -0.98282,8.05314 -1.83112,10.86535 -5.64123,18.70131 -3.9702,38.42649 6.38909,75.41832 3.24713,11.5951 7.02335,16.14805 21.53238,25.96132 9.67708,6.54514 18.70289,11.43629 20.05735,10.86921 1.35446,-0.56708 2.75912,-9.94877 3.12147,-20.8482 z m -153.493032,7.29089 c 27.022852,-19.57064 29.034382,-24.83901 29.034382,-76.04348 l 0,-44.47618 -8.4913,1.16657 c -4.67021,0.64162 -12.946531,1.79935 -18.391817,2.57275 -6.320395,0.89768 -11.304795,3.96023 -13.783919,8.46921 -11.095536,20.18031 -18.517631,120.82966 -8.910234,120.82966 1.791616,0 11.035916,-5.63334 20.542888,-12.51853 z"
       id="path2996"
       inkscape:connector-curvature="0" />
  </g>
</svg>
